<svg width="1206" height="1171" viewBox="0 0 1206 1171" fill="none" xmlns="http://www.w3.org/2000/svg">
<path d="M624 656C623.751 575.396 625.843 149.367 625.843 128.967V124.091L763.205 17.3647V727.876L743.298 714.641V58.0649L645.751 133.843C645.651 323.312 643.709 659.035 643.957 667.693L624 656Z" fill="white"/>
<path d="M365.752 728.622L365.453 718.671C365.304 713.397 365.204 682.797 365.204 627.718C365.204 586.321 365.204 546.467 365.204 546.467V541.192L564.081 406.354V655.879L544.173 666.029V443.87L385.112 551.741C385.112 563.881 385.112 595.327 385.112 627.718C385.112 696.082 385.261 714.591 385.361 718.074L365.752 728.622Z" fill="white"/>
<path d="M26.0788 1039.1C22.6447 1039.1 20.9028 1037.36 20.9028 1033.92V783.552C20.9028 780.119 22.4954 778.378 25.6806 778.378H90.5793C116.061 778.378 135.122 783.901 147.714 794.897C160.306 805.893 166.626 822.412 166.626 844.453C166.626 857.987 163.988 869.331 158.663 878.486C153.338 887.641 144.877 895.005 133.181 900.578V902.17C146.967 906.151 157.319 913.315 164.237 923.665C171.155 934.014 174.589 947.149 174.589 963.071C174.589 989.093 167.97 1008.25 154.682 1020.59C141.393 1032.93 120.291 1039.1 91.3756 1039.1H26.0788ZM79.8292 885.054H88.9867C95.3571 885.054 100.334 882.417 103.917 877.093C107.501 871.769 109.292 864.107 109.292 854.007C109.292 844.453 107.55 837.438 104.116 832.91C100.682 828.382 95.3571 826.143 88.1904 826.143H79.8292V885.054ZM79.8292 991.332H92.1719C100.135 991.332 106.257 988.546 110.487 982.973C114.717 977.401 116.857 969.44 116.857 959.091C116.857 948.741 114.667 941.328 110.288 936.004C105.908 930.68 99.5875 928.043 91.3756 928.043H79.8292V991.332Z" fill="white"/>
<path d="M200.469 1039.1C197.533 1039.1 196.089 1037.36 196.089 1033.92V783.552C196.089 780.119 197.533 778.378 200.469 778.378H324.294C327.23 778.378 328.674 780.119 328.674 783.552V825.347C328.674 828.78 327.23 830.522 324.294 830.522H255.016V882.666H317.525C320.462 882.666 321.905 884.407 321.905 887.84V927.247C321.905 930.68 320.462 932.421 317.525 932.421H255.016V986.954H324.294C327.23 986.954 328.674 988.695 328.674 992.128V1033.92C328.674 1037.36 327.23 1039.1 324.294 1039.1H200.469Z" fill="white"/>
<path d="M419.054 1041.49C401.287 1041.49 386.854 1038.35 375.855 1032.13C364.856 1025.91 357.092 1016.76 352.563 1004.67C348.034 992.576 346.591 978.197 348.183 961.479C348.432 957.747 349.925 955.906 352.563 955.906H401.536C404.173 955.906 405.368 957.648 405.119 961.081C404.571 970.087 405.517 977.401 407.906 982.973C410.295 988.546 414.276 991.332 419.851 991.332C425.425 991.332 429.058 989.74 431.596 986.556C434.134 983.371 435.378 978.197 435.378 971.032C435.378 965.211 434.184 959.837 431.795 954.911C429.406 949.985 425.823 945.706 421.045 941.975L386.406 915.306C373.118 905.205 363.313 894.757 356.943 883.86C350.572 872.964 347.536 859.181 347.785 842.463C348.034 820.969 353.907 804.5 365.304 793.106C376.701 781.712 394.22 775.99 417.86 775.99C444.138 775.99 463.398 782.707 475.592 796.091C487.785 809.475 492.862 828.681 490.721 853.609C490.473 857.838 488.88 859.977 485.944 859.977H436.573C433.388 859.977 431.944 857.838 432.193 853.609C432.99 846.444 432.542 840.075 430.8 834.502C429.058 828.93 425.574 826.143 420.249 826.143C415.72 826.143 412.335 827.537 410.096 830.323C407.856 833.109 406.712 837.537 406.712 843.657C406.712 850.275 408.155 855.748 411.091 859.977C414.028 864.207 417.71 868.087 422.239 871.521L456.082 897.394C465.887 904.558 473.551 911.524 478.976 918.291C484.401 925.058 488.382 932.621 490.921 940.98C493.459 949.338 494.554 959.489 494.305 971.43C494.056 994.268 487.984 1011.63 476.189 1023.57C464.394 1035.52 445.332 1041.49 419.054 1041.49Z" fill="white"/>
<path d="M520.184 1039.1C517.248 1039.1 515.805 1037.36 515.805 1033.92V783.552C515.805 780.119 517.248 778.378 520.184 778.378H580.703C608.325 778.378 628.681 785.543 641.82 799.872C654.959 814.202 661.528 836.493 661.528 866.744C661.528 894.856 654.71 916.35 641.023 931.227C627.337 946.104 607.628 953.518 581.898 953.518H574.731V1033.92C574.731 1037.36 573.288 1039.1 570.351 1039.1H520.184ZM574.731 901.374H580.703C588.119 901.374 593.643 898.538 597.227 892.816C600.81 887.094 602.602 878.437 602.602 866.744C602.602 854.007 600.959 844.802 597.625 839.08C594.29 833.358 588.816 830.522 581.101 830.522H574.731V901.374Z" fill="white"/>
<path d="M763.853 1041.49C736.53 1041.49 715.727 1033.72 701.542 1018.2C687.358 1002.68 680.241 979.789 680.241 949.538V868.336C680.241 837.836 687.358 814.799 701.542 799.275C715.727 783.752 736.53 775.99 763.853 775.99C791.176 775.99 811.98 783.752 826.164 799.275C840.348 814.799 847.465 837.836 847.465 868.336V949.538C847.465 979.789 840.348 1002.68 826.164 1018.2C811.98 1033.72 791.176 1041.49 763.853 1041.49ZM763.853 988.546C772.612 988.546 778.933 985.511 782.765 979.391C786.597 973.271 788.538 962.673 788.538 947.547V870.326C788.538 854.952 786.597 844.205 782.765 838.085C778.933 831.965 772.612 828.93 763.853 828.93C755.094 828.93 748.773 831.965 744.941 838.085C741.109 844.205 739.168 854.952 739.168 870.326V947.547C739.168 962.673 741.109 973.271 744.941 979.391C748.773 985.511 755.094 988.546 763.853 988.546Z" fill="white"/>
<path d="M875.733 1039.1C872.797 1039.1 871.354 1037.36 871.354 1033.92V783.552C871.354 780.119 872.797 778.378 875.733 778.378H925.9C928.837 778.378 930.28 780.119 930.28 783.552V827.736C930.28 832.761 930.131 839.279 929.882 847.24C929.633 855.201 929.285 863.012 928.886 870.724C928.488 878.437 928.14 884.905 927.891 890.229H928.289C930.678 882.517 933.316 873.312 936.252 862.565C939.188 851.817 943.27 840.324 948.595 828.134L969.697 781.164C970.244 779.323 971.837 778.378 974.475 778.378H1030.22C1033.65 778.378 1034.45 780.517 1032.6 784.747L986.419 888.637L1040.97 1032.73C1042.81 1036.96 1041.76 1039.1 1037.78 1039.1H978.456C975.818 1039.1 974.076 1038.05 973.28 1035.91L943.419 937.994L930.28 963.071V1033.92C930.28 1037.36 928.837 1039.1 925.9 1039.1H875.733Z" fill="white"/>
<path d="M1059.28 1039.1C1056.34 1039.1 1054.9 1037.36 1054.9 1033.92V783.552C1054.9 780.119 1056.34 778.378 1059.28 778.378H1183.11C1186.04 778.378 1187.49 780.119 1187.49 783.552V825.347C1187.49 828.78 1186.04 830.522 1183.11 830.522H1113.83V882.666H1176.34C1179.27 882.666 1180.72 884.407 1180.72 887.84V927.247C1180.72 930.68 1179.27 932.421 1176.34 932.421H1113.83V986.954H1183.11C1186.04 986.954 1187.49 988.695 1187.49 992.128V1033.92C1187.49 1037.36 1186.04 1039.1 1183.11 1039.1H1059.28Z" fill="white"/>
<path d="M44.344 1079.35V1158.16H27.7212V1079.35H44.344ZM86.1499 1111.74V1125.13H35.9828V1111.74H86.1499ZM94.1627 1079.35V1158.16H77.4403V1079.35H94.1627Z" fill="white"/>
<path d="M227.693 1078.16C235.357 1078.16 241.926 1079.8 247.451 1083.03C252.975 1086.32 257.255 1090.94 260.241 1097.01C263.228 1103.08 264.721 1110.3 264.721 1118.76C264.721 1127.22 263.228 1134.43 260.241 1140.5C257.255 1146.57 252.975 1151.2 247.451 1154.48C241.926 1157.77 235.307 1159.36 227.693 1159.36C220.078 1159.36 213.459 1157.72 207.934 1154.48C202.41 1151.2 198.13 1146.57 195.094 1140.5C192.058 1134.43 190.565 1127.22 190.565 1118.76C190.565 1110.3 192.058 1103.08 195.094 1097.01C198.13 1090.94 202.41 1086.32 207.934 1083.03C213.459 1079.75 220.078 1078.16 227.693 1078.16ZM227.693 1091.69C223.462 1091.69 219.879 1092.73 216.893 1094.77C213.907 1096.86 211.617 1099.9 210.025 1103.93C208.432 1107.96 207.636 1112.89 207.636 1118.81C207.636 1124.73 208.432 1129.55 210.025 1133.63C211.617 1137.71 213.907 1140.75 216.893 1142.84C219.879 1144.93 223.462 1145.92 227.693 1145.92C231.923 1145.92 235.506 1144.88 238.443 1142.84C241.379 1140.75 243.668 1137.71 245.261 1133.63C246.854 1129.55 247.65 1124.63 247.65 1118.81C247.65 1112.99 246.854 1107.96 245.261 1103.93C243.668 1099.9 241.379 1096.86 238.443 1094.77C235.506 1092.68 231.923 1091.69 227.693 1091.69Z" fill="white"/>
<path d="M377.746 1144.93H417.661V1158.16H361.173V1079.35H377.796V1144.93H377.746Z" fill="white"/>
<path d="M541.237 1079.35C553.281 1079.35 562.538 1082.73 569.057 1089.55C575.577 1096.37 578.862 1106.07 578.862 1118.76C578.862 1131.44 575.577 1141.05 569.057 1147.91C562.538 1154.78 553.231 1158.16 541.237 1158.16H511.027V1079.35H541.237ZM540.191 1145.18C546.86 1145.18 552.136 1143.09 555.968 1138.86C559.8 1134.63 561.692 1127.96 561.692 1118.81C561.692 1112.59 560.796 1107.56 559.054 1103.68C557.312 1099.8 554.823 1096.96 551.638 1095.12C548.453 1093.28 544.621 1092.39 540.191 1092.39H527.65V1145.18H540.191Z" fill="white"/>
<path d="M691.887 1079.35V1158.16H675.264V1079.35H691.887Z" fill="white"/>
<path d="M858.513 1079.35V1158.16H839.75L813.124 1111.49L806.804 1099.05H806.704L807.202 1112.69V1158.16H792.271V1079.35H811.034L837.66 1126.02L843.981 1138.46H844.08L843.583 1124.83V1079.35H858.513Z" fill="white"/>
<path d="M990.152 1159.36C983.135 1159.36 977.013 1157.77 971.688 1154.58C966.412 1151.4 962.281 1146.77 959.345 1140.75C956.409 1134.73 954.916 1127.41 954.916 1118.91C954.916 1110.4 956.458 1103.08 959.594 1097.06C962.679 1090.99 967.109 1086.37 972.783 1083.08C978.456 1079.8 985.125 1078.21 992.69 1078.21C1001.05 1078.21 1007.82 1079.8 1013.05 1082.93C1018.27 1086.07 1022.3 1091.04 1025.19 1097.81L1009.91 1104.28C1008.72 1100 1006.63 1096.81 1003.69 1094.77C1000.75 1092.73 997.12 1091.74 992.839 1091.74C988.559 1091.74 984.976 1092.78 981.841 1094.92C978.705 1097.06 976.316 1100.1 974.624 1104.13C972.932 1108.16 972.036 1113.08 972.036 1118.86C972.036 1124.63 972.832 1129.85 974.475 1133.88C976.117 1137.96 978.506 1141.05 981.691 1143.14C984.876 1145.23 988.758 1146.32 993.387 1146.32C996.025 1146.32 998.364 1145.97 1000.5 1145.23C1002.59 1144.53 1004.49 1143.49 1006.08 1142.19C1007.67 1140.9 1008.91 1139.26 1009.86 1137.32C1010.76 1135.38 1011.25 1133.09 1011.25 1130.45V1128.66H991.545V1116.72H1025.59V1158.26H1013.89L1012.7 1140.85L1015.58 1142.89C1013.84 1148.16 1010.86 1152.24 1006.63 1155.13C1002.4 1158.01 996.97 1159.51 990.251 1159.51L990.152 1159.36Z" fill="white"/>
<path d="M1151.35 1078.16C1158.37 1078.16 1164.49 1079.35 1169.82 1081.79C1175.09 1084.23 1179.62 1087.86 1183.36 1092.73L1174.5 1103.48C1171.31 1099.35 1167.83 1096.32 1163.99 1094.33C1160.16 1092.39 1155.78 1091.39 1150.86 1091.39C1147.67 1091.39 1145.03 1091.79 1142.99 1092.64C1140.95 1093.48 1139.41 1094.63 1138.46 1096.12C1137.52 1097.61 1137.02 1099.2 1137.02 1100.94C1137.02 1103.33 1137.92 1105.22 1139.66 1106.67C1141.4 1108.11 1144.14 1109.2 1147.77 1110L1161.61 1113.23C1169.17 1114.98 1174.65 1117.61 1178.03 1121.05C1181.41 1124.53 1183.11 1129.01 1183.11 1134.58C1183.11 1139.75 1181.76 1144.18 1179.12 1147.91C1176.44 1151.6 1172.75 1154.43 1167.98 1156.37C1163.2 1158.31 1157.72 1159.31 1151.6 1159.31C1146.43 1159.31 1141.6 1158.66 1137.07 1157.42C1132.59 1156.12 1128.56 1154.33 1125.08 1151.99C1121.59 1149.66 1118.61 1147.02 1116.22 1144.03L1125.18 1132.69C1127.02 1135.33 1129.26 1137.61 1131.94 1139.6C1134.63 1141.59 1137.62 1143.19 1141 1144.33C1144.39 1145.48 1147.92 1146.07 1151.55 1146.07C1154.64 1146.07 1157.28 1145.67 1159.37 1144.93C1161.46 1144.18 1163.1 1143.09 1164.24 1141.64C1165.39 1140.2 1165.99 1138.56 1165.99 1136.62C1165.99 1134.53 1165.29 1132.79 1163.9 1131.3C1162.5 1129.8 1160.01 1128.66 1156.43 1127.76L1141.25 1124.28C1137.02 1123.33 1133.29 1121.99 1130.1 1120.2C1126.87 1118.46 1124.33 1116.17 1122.44 1113.33C1120.55 1110.5 1119.65 1107.01 1119.65 1102.88C1119.65 1098.21 1120.94 1093.98 1123.48 1090.25C1126.02 1086.52 1129.65 1083.53 1134.43 1081.34C1139.16 1079.15 1144.78 1078.06 1151.35 1078.06V1078.16Z" fill="white"/>
</svg>
